solid OpenSCAD_Model
  facet normal -1 0 0
    outer loop
      vertex 0 7.35889 6.45818
      vertex 0 12.5 7.8
      vertex 0 12.5 0
    endloop
  endfacet
  facet normal -1 -0 0
    outer loop
      vertex 0 12.5 7.8
      vertex 0 8.79193 7.72774
      vertex 0 8.81934 7.8
    endloop
  endfacet
  facet normal -1 0 0
    outer loop
      vertex 0 12.5 7.8
      vertex 0 7.35889 6.45818
      vertex 0 8.79193 7.72774
    endloop
  endfacet
  facet normal -1 0 0
    outer loop
      vertex 0 12.5 0
      vertex 0 6.42945 6.22909
      vertex 0 7.35889 6.45818
    endloop
  endfacet
  facet normal -1 0 0
    outer loop
      vertex 0 12.5 0
      vertex 0 5.5 6
      vertex 0 6.42945 6.22909
    endloop
  endfacet
  facet normal -1 0 0
    outer loop
      vertex 0 0 0
      vertex 0 5.5 6
      vertex 0 12.5 0
    endloop
  endfacet
  facet normal -1 -0 0
    outer loop
      vertex 0 5.5 6
      vertex 0 0 0
      vertex 0 4.57055 6.22909
    endloop
  endfacet
  facet normal -1 -0 0
    outer loop
      vertex 0 4.57055 6.22909
      vertex 0 0 0
      vertex 0 3.64111 6.45818
    endloop
  endfacet
  facet normal -1 0 0
    outer loop
      vertex 0 0 7.8
      vertex 0 3.64111 6.45818
      vertex 0 0 0
    endloop
  endfacet
  facet normal -1 0 0
    outer loop
      vertex 0 3.64111 6.45818
      vertex 0 0 7.8
      vertex 0 2.20806 7.72774
    endloop
  endfacet
  facet normal -1 0 0
    outer loop
      vertex 0 2.20806 7.72774
      vertex 0 0 7.8
      vertex 0 2.18066 7.8
    endloop
  endfacet
  facet normal -1 0 0
    outer loop
      vertex 0 52.3589 6.45818
      vertex 0 56 7.8
      vertex 0 56 0
    endloop
  endfacet
  facet normal -1 -0 0
    outer loop
      vertex 0 56 7.8
      vertex 0 53.7919 7.72774
      vertex 0 53.8193 7.8
    endloop
  endfacet
  facet normal -1 0 0
    outer loop
      vertex 0 56 7.8
      vertex 0 52.3589 6.45818
      vertex 0 53.7919 7.72774
    endloop
  endfacet
  facet normal -1 0 0
    outer loop
      vertex 0 56 0
      vertex 0 51.4294 6.22909
      vertex 0 52.3589 6.45818
    endloop
  endfacet
  facet normal -1 0 0
    outer loop
      vertex 0 56 0
      vertex 0 50.5 6
      vertex 0 51.4294 6.22909
    endloop
  endfacet
  facet normal -1 0 0
    outer loop
      vertex 0 43.5 0
      vertex 0 50.5 6
      vertex 0 56 0
    endloop
  endfacet
  facet normal -1 -0 0
    outer loop
      vertex 0 50.5 6
      vertex 0 43.5 0
      vertex 0 49.5706 6.22909
    endloop
  endfacet
  facet normal -1 -0 0
    outer loop
      vertex 0 49.5706 6.22909
      vertex 0 43.5 0
      vertex 0 48.6411 6.45818
    endloop
  endfacet
  facet normal -1 0 0
    outer loop
      vertex 0 43.5 7.8
      vertex 0 48.6411 6.45818
      vertex 0 43.5 0
    endloop
  endfacet
  facet normal -1 0 0
    outer loop
      vertex 0 48.6411 6.45818
      vertex 0 43.5 7.8
      vertex 0 47.2081 7.72774
    endloop
  endfacet
  facet normal -1 0 0
    outer loop
      vertex 0 47.2081 7.72774
      vertex 0 43.5 7.8
      vertex 0 47.1807 7.8
    endloop
  endfacet
  facet normal -1 0 0
    outer loop
      vertex 0 15.5 0
      vertex 0 40.5 7.8
      vertex 0 40.5 0
    endloop
  endfacet
  facet normal -1 -0 0
    outer loop
      vertex 0 40.5 7.8
      vertex 0 15.5 0
      vertex 0 15.5 7.8
    endloop
  endfacet
  facet normal -0 0 1
    outer loop
      vertex 0 2.18066 7.8
      vertex 7.8 0 7.8
      vertex 7.8 2.18066 7.8
    endloop
  endfacet
  facet normal 0 0 1
    outer loop
      vertex 7.8 0 7.8
      vertex 0 2.18066 7.8
      vertex 0 0 7.8
    endloop
  endfacet
  facet normal -0 0 1
    outer loop
      vertex 0 56 7.8
      vertex 7.8 53.8193 7.8
      vertex 7.8 56 7.8
    endloop
  endfacet
  facet normal 0 0 1
    outer loop
      vertex 7.8 53.8193 7.8
      vertex 0 56 7.8
      vertex 0 53.8193 7.8
    endloop
  endfacet
  facet normal -0 0 1
    outer loop
      vertex 0 40.5 7.8
      vertex 1 15.5 7.8
      vertex 1 40.5 7.8
    endloop
  endfacet
  facet normal 0 0 1
    outer loop
      vertex 1 15.5 7.8
      vertex 0 40.5 7.8
      vertex 0 15.5 7.8
    endloop
  endfacet
  facet normal 0 0 1
    outer loop
      vertex 7.8 47.1807 7.8
      vertex 6.8 43.5 7.8
      vertex 7.8 43.5 7.8
    endloop
  endfacet
  facet normal 0 0 1
    outer loop
      vertex 1 40.5 7.8
      vertex 6.8 40.5 7.8
      vertex 6.8 43.5 7.8
    endloop
  endfacet
  facet normal 0 0 1
    outer loop
      vertex 6.8 40.5 7.8
      vertex 1 40.5 7.8
      vertex 6.8 15.5 7.8
    endloop
  endfacet
  facet normal 0 0 1
    outer loop
      vertex 1 40.5 7.8
      vertex 6.8 43.5 7.8
      vertex 1 43.5 7.8
    endloop
  endfacet
  facet normal 0 0 1
    outer loop
      vertex 7.8 47.1807 7.8
      vertex 1 43.5 7.8
      vertex 6.8 43.5 7.8
    endloop
  endfacet
  facet normal -0 0 1
    outer loop
      vertex 0 47.1807 7.8
      vertex 1 43.5 7.8
      vertex 7.8 47.1807 7.8
    endloop
  endfacet
  facet normal 0 0 1
    outer loop
      vertex 1 43.5 7.8
      vertex 0 47.1807 7.8
      vertex 0 43.5 7.8
    endloop
  endfacet
  facet normal -0 0 1
    outer loop
      vertex 6.8 40.5 7.8
      vertex 7.8 15.5 7.8
      vertex 7.8 40.5 7.8
    endloop
  endfacet
  facet normal 0 0 1
    outer loop
      vertex 7.8 15.5 7.8
      vertex 6.8 40.5 7.8
      vertex 6.8 15.5 7.8
    endloop
  endfacet
  facet normal -0 0 1
    outer loop
      vertex 6.8 12.5 7.8
      vertex 7.8 8.81934 7.8
      vertex 7.8 12.5 7.8
    endloop
  endfacet
  facet normal 0 0 1
    outer loop
      vertex 1 15.5 7.8
      vertex 6.8 15.5 7.8
      vertex 1 40.5 7.8
    endloop
  endfacet
  facet normal 0 0 1
    outer loop
      vertex 6.8 15.5 7.8
      vertex 1 15.5 7.8
      vertex 6.8 12.5 7.8
    endloop
  endfacet
  facet normal 0 0 1
    outer loop
      vertex 1 12.5 7.8
      vertex 6.8 12.5 7.8
      vertex 1 15.5 7.8
    endloop
  endfacet
  facet normal 0 0 1
    outer loop
      vertex 6.8 12.5 7.8
      vertex 1 12.5 7.8
      vertex 7.8 8.81934 7.8
    endloop
  endfacet
  facet normal 0 0 1
    outer loop
      vertex 0 8.81934 7.8
      vertex 1 12.5 7.8
      vertex 0 12.5 7.8
    endloop
  endfacet
  facet normal 0 0 1
    outer loop
      vertex 1 12.5 7.8
      vertex 0 8.81934 7.8
      vertex 7.8 8.81934 7.8
    endloop
  endfacet
  facet normal 1 0 0
    outer loop
      vertex 7.8 8.79193 7.72774
      vertex 7.8 12.5 7.8
      vertex 7.8 8.81934 7.8
    endloop
  endfacet
  facet normal 1 0 0
    outer loop
      vertex 7.8 7.35889 6.45818
      vertex 7.8 12.5 7.8
      vertex 7.8 8.79193 7.72774
    endloop
  endfacet
  facet normal 1 0 0
    outer loop
      vertex 7.8 12.5 7.8
      vertex 7.8 7.35889 6.45818
      vertex 7.8 12.5 0
    endloop
  endfacet
  facet normal 1 -0 0
    outer loop
      vertex 7.8 7.15441 6.40778
      vertex 7.8 12.5 0
      vertex 7.8 7.35889 6.45818
    endloop
  endfacet
  facet normal 1 -0 0
    outer loop
      vertex 7.8 5.5 6
      vertex 7.8 12.5 0
      vertex 7.8 7.15441 6.40778
    endloop
  endfacet
  facet normal 1 0 0
    outer loop
      vertex 7.8 0 0
      vertex 7.8 5.5 6
      vertex 7.8 3.84558 6.40778
    endloop
  endfacet
  facet normal 1 0 0
    outer loop
      vertex 7.8 0 0
      vertex 7.8 3.84558 6.40778
      vertex 7.8 3.64111 6.45818
    endloop
  endfacet
  facet normal 1 -0 0
    outer loop
      vertex 7.8 0 7.8
      vertex 7.8 2.20806 7.72774
      vertex 7.8 2.18066 7.8
    endloop
  endfacet
  facet normal 1 0 0
    outer loop
      vertex 7.8 0 7.8
      vertex 7.8 3.64111 6.45818
      vertex 7.8 2.20806 7.72774
    endloop
  endfacet
  facet normal 1 0 0
    outer loop
      vertex 7.8 0 0
      vertex 7.8 3.64111 6.45818
      vertex 7.8 0 7.8
    endloop
  endfacet
  facet normal 1 0 0
    outer loop
      vertex 7.8 5.5 6
      vertex 7.8 0 0
      vertex 7.8 12.5 0
    endloop
  endfacet
  facet normal 1 0 0
    outer loop
      vertex 7.8 53.7919 7.72774
      vertex 7.8 56 7.8
      vertex 7.8 53.8193 7.8
    endloop
  endfacet
  facet normal 1 0 0
    outer loop
      vertex 7.8 52.3589 6.45818
      vertex 7.8 56 7.8
      vertex 7.8 53.7919 7.72774
    endloop
  endfacet
  facet normal 1 0 0
    outer loop
      vertex 7.8 56 7.8
      vertex 7.8 52.3589 6.45818
      vertex 7.8 56 0
    endloop
  endfacet
  facet normal 1 -0 0
    outer loop
      vertex 7.8 52.1544 6.40778
      vertex 7.8 56 0
      vertex 7.8 52.3589 6.45818
    endloop
  endfacet
  facet normal 1 -0 0
    outer loop
      vertex 7.8 50.5 6
      vertex 7.8 56 0
      vertex 7.8 52.1544 6.40778
    endloop
  endfacet
  facet normal 1 0 0
    outer loop
      vertex 7.8 43.5 0
      vertex 7.8 50.5 6
      vertex 7.8 48.8456 6.40778
    endloop
  endfacet
  facet normal 1 0 0
    outer loop
      vertex 7.8 43.5 0
      vertex 7.8 48.8456 6.40778
      vertex 7.8 48.6411 6.45818
    endloop
  endfacet
  facet normal 1 -0 0
    outer loop
      vertex 7.8 43.5 7.8
      vertex 7.8 47.2081 7.72774
      vertex 7.8 47.1807 7.8
    endloop
  endfacet
  facet normal 1 0 0
    outer loop
      vertex 7.8 43.5 7.8
      vertex 7.8 48.6411 6.45818
      vertex 7.8 47.2081 7.72774
    endloop
  endfacet
  facet normal 1 0 0
    outer loop
      vertex 7.8 43.5 0
      vertex 7.8 48.6411 6.45818
      vertex 7.8 43.5 7.8
    endloop
  endfacet
  facet normal 1 0 0
    outer loop
      vertex 7.8 50.5 6
      vertex 7.8 43.5 0
      vertex 7.8 56 0
    endloop
  endfacet
  facet normal 1 -0 0
    outer loop
      vertex 7.8 15.5 7.8
      vertex 7.8 40.5 0
      vertex 7.8 40.5 7.8
    endloop
  endfacet
  facet normal 1 0 0
    outer loop
      vertex 7.8 40.5 0
      vertex 7.8 15.5 7.8
      vertex 7.8 15.5 0
    endloop
  endfacet
  facet normal 0 1 -0
    outer loop
      vertex 7.8 56 0
      vertex 0 56 7.8
      vertex 7.8 56 7.8
    endloop
  endfacet
  facet normal 0 1 0
    outer loop
      vertex 0 56 7.8
      vertex 7.8 56 0
      vertex 0 56 0
    endloop
  endfacet
  facet normal 0 0 -1
    outer loop
      vertex 0 15.5 0
      vertex 1 40.5 0
      vertex 1 15.5 0
    endloop
  endfacet
  facet normal -0 0 -1
    outer loop
      vertex 1 40.5 0
      vertex 0 15.5 0
      vertex 0 40.5 0
    endloop
  endfacet
  facet normal 0 0 -1
    outer loop
      vertex 7.8 0 0
      vertex 6.8 12.5 0
      vertex 7.8 12.5 0
    endloop
  endfacet
  facet normal 0 0 -1
    outer loop
      vertex 1 15.5 0
      vertex 6.8 15.5 0
      vertex 6.8 12.5 0
    endloop
  endfacet
  facet normal 0 0 -1
    outer loop
      vertex 6.8 15.5 0
      vertex 1 15.5 0
      vertex 6.8 40.5 0
    endloop
  endfacet
  facet normal 0 0 -1
    outer loop
      vertex 1 15.5 0
      vertex 6.8 12.5 0
      vertex 1 12.5 0
    endloop
  endfacet
  facet normal 0 0 -1
    outer loop
      vertex 7.8 0 0
      vertex 1 12.5 0
      vertex 6.8 12.5 0
    endloop
  endfacet
  facet normal 0 0 -1
    outer loop
      vertex 0 0 0
      vertex 1 12.5 0
      vertex 7.8 0 0
    endloop
  endfacet
  facet normal -0 0 -1
    outer loop
      vertex 1 12.5 0
      vertex 0 0 0
      vertex 0 12.5 0
    endloop
  endfacet
  facet normal 0 0 -1
    outer loop
      vertex 6.8 15.5 0
      vertex 7.8 40.5 0
      vertex 7.8 15.5 0
    endloop
  endfacet
  facet normal -0 0 -1
    outer loop
      vertex 7.8 40.5 0
      vertex 6.8 15.5 0
      vertex 6.8 40.5 0
    endloop
  endfacet
  facet normal 0 0 -1
    outer loop
      vertex 6.8 43.5 0
      vertex 7.8 56 0
      vertex 7.8 43.5 0
    endloop
  endfacet
  facet normal 0 0 -1
    outer loop
      vertex 1 40.5 0
      vertex 6.8 40.5 0
      vertex 1 15.5 0
    endloop
  endfacet
  facet normal 0 0 -1
    outer loop
      vertex 6.8 40.5 0
      vertex 1 40.5 0
      vertex 6.8 43.5 0
    endloop
  endfacet
  facet normal 0 0 -1
    outer loop
      vertex 1 43.5 0
      vertex 6.8 43.5 0
      vertex 1 40.5 0
    endloop
  endfacet
  facet normal 0 0 -1
    outer loop
      vertex 6.8 43.5 0
      vertex 1 43.5 0
      vertex 7.8 56 0
    endloop
  endfacet
  facet normal 0 0 -1
    outer loop
      vertex 0 56 0
      vertex 1 43.5 0
      vertex 0 43.5 0
    endloop
  endfacet
  facet normal 0 0 -1
    outer loop
      vertex 1 43.5 0
      vertex 0 56 0
      vertex 7.8 56 0
    endloop
  endfacet
  facet normal 0 -1 0
    outer loop
      vertex 0 0 0
      vertex 7.8 0 7.8
      vertex 0 0 7.8
    endloop
  endfacet
  facet normal 0 -1 -0
    outer loop
      vertex 7.8 0 7.8
      vertex 0 0 0
      vertex 7.8 0 0
    endloop
  endfacet
  facet normal 1 -0 0
    outer loop
      vertex 6.8 12.5 7.8
      vertex 6.8 15.5 0
      vertex 6.8 15.5 7.8
    endloop
  endfacet
  facet normal 1 0 0
    outer loop
      vertex 6.8 15.5 0
      vertex 6.8 12.5 7.8
      vertex 6.8 12.5 0
    endloop
  endfacet
  facet normal 0 -1 0
    outer loop
      vertex 6.8 15.5 0
      vertex 7.8 15.5 7.8
      vertex 6.8 15.5 7.8
    endloop
  endfacet
  facet normal 0 -1 -0
    outer loop
      vertex 7.8 15.5 7.8
      vertex 6.8 15.5 0
      vertex 7.8 15.5 0
    endloop
  endfacet
  facet normal 0 1 -0
    outer loop
      vertex 7.8 12.5 0
      vertex 6.8 12.5 7.8
      vertex 7.8 12.5 7.8
    endloop
  endfacet
  facet normal 0 1 0
    outer loop
      vertex 6.8 12.5 7.8
      vertex 7.8 12.5 0
      vertex 6.8 12.5 0
    endloop
  endfacet
  facet normal 1 -0 0
    outer loop
      vertex 6.8 40.5 7.8
      vertex 6.8 43.5 0
      vertex 6.8 43.5 7.8
    endloop
  endfacet
  facet normal 1 0 0
    outer loop
      vertex 6.8 43.5 0
      vertex 6.8 40.5 7.8
      vertex 6.8 40.5 0
    endloop
  endfacet
  facet normal 0 -1 0
    outer loop
      vertex 6.8 43.5 0
      vertex 7.8 43.5 7.8
      vertex 6.8 43.5 7.8
    endloop
  endfacet
  facet normal 0 -1 -0
    outer loop
      vertex 7.8 43.5 7.8
      vertex 6.8 43.5 0
      vertex 7.8 43.5 0
    endloop
  endfacet
  facet normal 0 1 -0
    outer loop
      vertex 7.8 40.5 0
      vertex 6.8 40.5 7.8
      vertex 7.8 40.5 7.8
    endloop
  endfacet
  facet normal 0 1 0
    outer loop
      vertex 6.8 40.5 7.8
      vertex 7.8 40.5 0
      vertex 6.8 40.5 0
    endloop
  endfacet
  facet normal -1 0 0
    outer loop
      vertex 1 12.5 0
      vertex 1 15.5 7.8
      vertex 1 15.5 0
    endloop
  endfacet
  facet normal -1 -0 0
    outer loop
      vertex 1 15.5 7.8
      vertex 1 12.5 0
      vertex 1 12.5 7.8
    endloop
  endfacet
  facet normal 0 1 -0
    outer loop
      vertex 1 12.5 0
      vertex 0 12.5 7.8
      vertex 1 12.5 7.8
    endloop
  endfacet
  facet normal 0 1 0
    outer loop
      vertex 0 12.5 7.8
      vertex 1 12.5 0
      vertex 0 12.5 0
    endloop
  endfacet
  facet normal 0 -1 0
    outer loop
      vertex 0 15.5 0
      vertex 1 15.5 7.8
      vertex 0 15.5 7.8
    endloop
  endfacet
  facet normal 0 -1 -0
    outer loop
      vertex 1 15.5 7.8
      vertex 0 15.5 0
      vertex 1 15.5 0
    endloop
  endfacet
  facet normal -1 0 0
    outer loop
      vertex 1 40.5 0
      vertex 1 43.5 7.8
      vertex 1 43.5 0
    endloop
  endfacet
  facet normal -1 -0 0
    outer loop
      vertex 1 43.5 7.8
      vertex 1 40.5 0
      vertex 1 40.5 7.8
    endloop
  endfacet
  facet normal 0 1 -0
    outer loop
      vertex 1 40.5 0
      vertex 0 40.5 7.8
      vertex 1 40.5 7.8
    endloop
  endfacet
  facet normal 0 1 0
    outer loop
      vertex 0 40.5 7.8
      vertex 1 40.5 0
      vertex 0 40.5 0
    endloop
  endfacet
  facet normal 0 -1 0
    outer loop
      vertex 0 43.5 0
      vertex 1 43.5 7.8
      vertex 0 43.5 7.8
    endloop
  endfacet
  facet normal 0 -1 -0
    outer loop
      vertex 1 43.5 7.8
      vertex 0 43.5 0
      vertex 1 43.5 0
    endloop
  endfacet
  facet normal 0 -0.239314 0.970942
    outer loop
      vertex 0 52.3589 6.45818
      vertex 7.8 52.1544 6.40778
      vertex 7.8 52.3589 6.45818
    endloop
  endfacet
  facet normal -4.11817e-008 -0.239316 0.970942
    outer loop
      vertex 7.8 52.1544 6.40778
      vertex 0 52.3589 6.45818
      vertex 0 51.4294 6.22909
    endloop
  endfacet
  facet normal -7.51561e-008 -0.239315 0.970942
    outer loop
      vertex 0 51.4294 6.22909
      vertex 7.8 50.5 6
      vertex 7.8 52.1544 6.40778
    endloop
  endfacet
  facet normal -5.93566e-008 -0.239315 0.970942
    outer loop
      vertex 7.8 50.5 6
      vertex 0 51.4294 6.22909
      vertex 0 50.5 6
    endloop
  endfacet
  facet normal 0 0.935014 0.354611
    outer loop
      vertex 7.8 47.2081 7.72774
      vertex 0 47.1807 7.8
      vertex 7.8 47.1807 7.8
    endloop
  endfacet
  facet normal 0 0.935014 0.354611
    outer loop
      vertex 0 47.1807 7.8
      vertex 7.8 47.2081 7.72774
      vertex 0 47.2081 7.72774
    endloop
  endfacet
  facet normal 0 -0.663123 0.74851
    outer loop
      vertex 0 53.7919 7.72774
      vertex 7.8 52.3589 6.45818
      vertex 7.8 53.7919 7.72774
    endloop
  endfacet
  facet normal 0 -0.663123 0.74851
    outer loop
      vertex 7.8 52.3589 6.45818
      vertex 0 53.7919 7.72774
      vertex 0 52.3589 6.45818
    endloop
  endfacet
  facet normal 0 -0.935014 0.354611
    outer loop
      vertex 0 53.7919 7.72774
      vertex 7.8 53.8193 7.8
      vertex 0 53.8193 7.8
    endloop
  endfacet
  facet normal 0 -0.935014 0.354611
    outer loop
      vertex 7.8 53.8193 7.8
      vertex 0 53.7919 7.72774
      vertex 7.8 53.7919 7.72774
    endloop
  endfacet
  facet normal -0 0.663123 0.74851
    outer loop
      vertex 0 48.6411 6.45818
      vertex 7.8 47.2081 7.72774
      vertex 7.8 48.6411 6.45818
    endloop
  endfacet
  facet normal 0 0.663123 0.74851
    outer loop
      vertex 7.8 47.2081 7.72774
      vertex 0 48.6411 6.45818
      vertex 0 47.2081 7.72774
    endloop
  endfacet
  facet normal -4.11817e-008 0.239316 0.970942
    outer loop
      vertex 0 48.6411 6.45818
      vertex 7.8 48.8456 6.40778
      vertex 0 49.5706 6.22909
    endloop
  endfacet
  facet normal 0 0.239314 0.970942
    outer loop
      vertex 7.8 48.8456 6.40778
      vertex 0 48.6411 6.45818
      vertex 7.8 48.6411 6.45818
    endloop
  endfacet
  facet normal -5.93566e-008 0.239315 0.970942
    outer loop
      vertex 0 49.5706 6.22909
      vertex 7.8 50.5 6
      vertex 0 50.5 6
    endloop
  endfacet
  facet normal -7.51561e-008 0.239315 0.970942
    outer loop
      vertex 7.8 50.5 6
      vertex 0 49.5706 6.22909
      vertex 7.8 48.8456 6.40778
    endloop
  endfacet
  facet normal 0 -0.239315 0.970942
    outer loop
      vertex 0 7.35889 6.45818
      vertex 7.8 7.15441 6.40778
      vertex 7.8 7.35889 6.45818
    endloop
  endfacet
  facet normal -1.83587e-008 -0.239316 0.970942
    outer loop
      vertex 7.8 7.15441 6.40778
      vertex 0 7.35889 6.45818
      vertex 0 6.42945 6.22909
    endloop
  endfacet
  facet normal -6.23342e-008 -0.239316 0.970942
    outer loop
      vertex 0 6.42945 6.22909
      vertex 7.8 5.5 6
      vertex 7.8 7.15441 6.40778
    endloop
  endfacet
  facet normal -5.93566e-008 -0.239316 0.970942
    outer loop
      vertex 7.8 5.5 6
      vertex 0 6.42945 6.22909
      vertex 0 5.5 6
    endloop
  endfacet
  facet normal 0 0.935016 0.354606
    outer loop
      vertex 7.8 2.20806 7.72774
      vertex 0 2.18066 7.8
      vertex 7.8 2.18066 7.8
    endloop
  endfacet
  facet normal 0 0.935016 0.354606
    outer loop
      vertex 0 2.18066 7.8
      vertex 7.8 2.20806 7.72774
      vertex 0 2.20806 7.72774
    endloop
  endfacet
  facet normal 0 -0.663123 0.748511
    outer loop
      vertex 0 8.79193 7.72774
      vertex 7.8 7.35889 6.45818
      vertex 7.8 8.79193 7.72774
    endloop
  endfacet
  facet normal 0 -0.663123 0.748511
    outer loop
      vertex 7.8 7.35889 6.45818
      vertex 0 8.79193 7.72774
      vertex 0 7.35889 6.45818
    endloop
  endfacet
  facet normal 0 -0.935018 0.354601
    outer loop
      vertex 0 8.79193 7.72774
      vertex 7.8 8.81934 7.8
      vertex 0 8.81934 7.8
    endloop
  endfacet
  facet normal 0 -0.935018 0.354601
    outer loop
      vertex 7.8 8.81934 7.8
      vertex 0 8.79193 7.72774
      vertex 7.8 8.79193 7.72774
    endloop
  endfacet
  facet normal -0 0.663123 0.748511
    outer loop
      vertex 0 3.64111 6.45818
      vertex 7.8 2.20806 7.72774
      vertex 7.8 3.64111 6.45818
    endloop
  endfacet
  facet normal 0 0.663123 0.748511
    outer loop
      vertex 7.8 2.20806 7.72774
      vertex 0 3.64111 6.45818
      vertex 0 2.20806 7.72774
    endloop
  endfacet
  facet normal -1.51401e-008 0.239316 0.970942
    outer loop
      vertex 0 3.64111 6.45818
      vertex 7.8 3.84558 6.40778
      vertex 0 4.57055 6.22909
    endloop
  endfacet
  facet normal 0 0.239315 0.970942
    outer loop
      vertex 7.8 3.84558 6.40778
      vertex 0 3.64111 6.45818
      vertex 7.8 3.64111 6.45818
    endloop
  endfacet
  facet normal -5.93566e-008 0.239315 0.970942
    outer loop
      vertex 0 4.57055 6.22909
      vertex 7.8 5.5 6
      vertex 0 5.5 6
    endloop
  endfacet
  facet normal -6.0526e-008 0.239315 0.970942
    outer loop
      vertex 7.8 5.5 6
      vertex 0 4.57055 6.22909
      vertex 7.8 3.84558 6.40778
    endloop
  endfacet
endsolid OpenSCAD_Model
